<svg xmlns="http://www.w3.org/2000/svg" width="42.644" height="41.331" viewBox="0 0 42.644 41.331">
  <path id="file_2_" data-name="file (2)" d="M171.092,159.05a15.9,15.9,0,0,1,1.3-1.013,4.148,4.148,0,0,1,4.618-.014,18.009,18.009,0,0,1,2.573,2.047c3.2,2.8,6.44,5.554,9.668,8.321,1.854,1.589,3.724,3.162,5.457,4.887a5.848,5.848,0,0,1,1.083,1.4,1.817,1.817,0,0,1-1.491,2.885,11.407,11.407,0,0,1-2.336.073,2.578,2.578,0,0,0-.7.014,9.693,9.693,0,0,0,.077,1.589c.045.562.059,1.126.079,1.686.049,1.382.122,2.767.07,4.151a25.851,25.851,0,0,1-.712,6.127,9.529,9.529,0,0,1-7.694,7.128,17.8,17.8,0,0,1-5.572.2c-.678-.068-1.347-.186-2.019-.292a4.027,4.027,0,0,0-1.174.118,27.952,27.952,0,0,1-5.377.233,16.305,16.305,0,0,1-4.44-.8,8.967,8.967,0,0,1-5.978-6.5,16.964,16.964,0,0,1-.489-3.031c-.182-2.133-.116-4.268-.092-6.4.013-1.184.1-2.368.164-3.551.038-.69.05-.692-.659-.685a10.064,10.064,0,0,1-2.446-.178,2.638,2.638,0,0,1-.664-.249,1.592,1.592,0,0,1-.719-2.129,4.845,4.845,0,0,1,1.09-1.5c1.725-1.7,3.553-3.295,5.373-4.893q4.625-4.062,9.26-8.114c.573-.5,1.149-1,1.74-1.511m22.065,15.375c-.182-.182-.357-.371-.547-.544-2.4-2.2-4.9-4.277-7.363-6.406q-3.3-2.854-6.609-5.691a21.642,21.642,0,0,0-2.619-2.086,2.321,2.321,0,0,0-2.909.189c-1.451,1.163-2.841,2.4-4.239,3.622q-2.8,2.453-5.6,4.91c-1.553,1.363-3.109,2.723-4.655,4.094a33.461,33.461,0,0,0-2.822,2.669,1.041,1.041,0,0,0-.277.406,1.805,1.805,0,0,0,.42.1,20.86,20.86,0,0,0,2.726.023,1.137,1.137,0,0,1,1.3.982,1.716,1.716,0,0,1,.022.354c0,1.879-.057,3.756-.109,5.634-.04,1.433.041,2.866.1,4.3a20.356,20.356,0,0,0,.372,3.378,7.083,7.083,0,0,0,4.7,5.513,15.279,15.279,0,0,0,5.188.759,4.692,4.692,0,0,0,.624-.077c-.163-.095-.273-.16-.384-.222a18.642,18.642,0,0,1-6.888-6.386,14.546,14.546,0,0,1-2.453-8.78,10.118,10.118,0,0,1,1.723-5.159,7.085,7.085,0,0,1,7.5-2.933,6.728,6.728,0,0,1,4.517,3.721,12.887,12.887,0,0,1,.583,1.413c.135-.014.178-.115.24-.185a9.734,9.734,0,0,1,1.622-1.473,6.62,6.62,0,0,1,4.844-1.341,5.224,5.224,0,0,1,4.645,5.283,8.265,8.265,0,0,1-1.048,4,13.791,13.791,0,0,1-3.869,4.438,12.208,12.208,0,0,1-2.424,1.538,1.246,1.246,0,0,1-.637.1.551.551,0,0,1-.542-.753,1.331,1.331,0,0,1,.519-.665,25.327,25.327,0,0,0,3.215-3.279,9.585,9.585,0,0,0,2.293-4.833,3.16,3.16,0,0,0-4.283-3.433,6.666,6.666,0,0,0-3.17,2.439,10.784,10.784,0,0,0-1.5,2.748,2.034,2.034,0,0,1-.909,1.1.8.8,0,0,1-1.2-.5,1.5,1.5,0,0,1,.016-.9,6.444,6.444,0,0,0,.234-2.544,5.444,5.444,0,0,0-1.385-3.176,4.12,4.12,0,0,0-3.555-1.427,4.874,4.874,0,0,0-3.9,2.8,8.288,8.288,0,0,0-.756,4.727,13.066,13.066,0,0,0,1.351,4.6,15.243,15.243,0,0,0,4.024,4.963,17.044,17.044,0,0,0,9.477,3.954,13.846,13.846,0,0,0,4.534-.282,6.96,6.96,0,0,0,5.407-4.874,18.888,18.888,0,0,0,.7-4.46c.091-1.262.087-2.53.072-3.8-.012-1.107.017-2.215-.043-3.322-.048-.878-.071-1.758-.077-2.637a1.163,1.163,0,0,1,1.327-1.328c.247,0,.5,0,.741.019a20.22,20.22,0,0,0,2.46.041c.087,0,.19.02.245-.07.067-.112-.035-.184-.09-.258A10.806,10.806,0,0,0,193.157,174.425Z" transform="translate(-153.469 -157.328)"/>
</svg>
